<?xml version="1.0" encoding="UTF-8"?>
<svg xmlns="http://www.w3.org/2000/svg" viewBox="0 0 1000 600">
  <rect width="100%" height="100%" fill="#fff7ec"/>
  <defs>
    <linearGradient id="retro" x1="0" y1="0" x2="1" y2="1">
      <stop offset="0%" stop-color="#f6c29b"/>
      <stop offset="100%" stop-color="#f5623d"/>
    </linearGradient>
  </defs>
  <path d="M0,420 C120,260 240,260 360,420 C480,580 620,580 740,420 C860,260 980,260 1000,420 L1000,600 L0,600 Z" fill="#7fb069"/>
  <path d="M0,480 C160,340 300,340 420,480 C560,640 680,640 800,480 C940,300 980,300 1000,480 L1000,600 L0,600 Z" fill="#c6dfa3"/>
  <circle cx="740" cy="120" r="60" fill="url(#retro)"/>
  <g font-family="Georgia, serif" text-anchor="middle">
    <text x="500" y="380" font-size="110" font-weight="700" fill="#8b3e2f">VISITE</text>
    <text x="500" y="455" font-size="48" fill="#6b3a2a">TERESÓPOLIS <tspan fill="#7fb069">RJ</tspan></text>
    <text x="500" y="520" font-size="28" fill="#7fb069">PROCAP RJ</text>
  </g>
</svg>
