<?xml version="1.0" encoding="UTF-8"?>
<svg xmlns="http://www.w3.org/2000/svg" viewBox="0 0 1000 600">
  <defs>
    <linearGradient id="sky" x1="0" y1="0" x2="0" y2="1">
      <stop offset="0%" stop-color="#FFF3E0"/>
      <stop offset="100%" stop-color="#E3F2FD"/>
    </linearGradient>
    <linearGradient id="mount1" x1="0" y1="0" x2="1" y2="1">
      <stop offset="0%" stop-color="#2b8a3e"/>
      <stop offset="100%" stop-color="#1b5e20"/>
    </linearGradient>
    <linearGradient id="mount2" x1="0" y1="0" x2="1" y2="1">
      <stop offset="0%" stop-color="#7bd389"/>
      <stop offset="100%" stop-color="#43a047"/>
    </linearGradient>
  </defs>
  <rect width="100%" height="100%" fill="url(#sky)"/>
  <path d="M0,420 C120,260 240,260 360,420 C480,580 620,580 740,420 C860,260 980,260 1000,420 L1000,600 L0,600 Z" fill="url(#mount1)"/>
  <path d="M0,480 C160,340 300,340 420,480 C560,640 680,640 800,480 C940,300 980,300 1000,480 L1000,600 L0,600 Z" fill="url(#mount2)" opacity="0.95"/>
  <circle cx="700" cy="120" r="60" fill="#FFD54F"/>
  <g font-family="Helvetica, Arial, sans-serif" text-anchor="middle">
    <text x="500" y="380" font-size="110" font-weight="800" fill="#0b3d91">VISITE</text>
    <text x="500" y="455" font-size="48" fill="#0b3d91">TERESÓPOLIS <tspan fill="#2e7d32">RJ</tspan></text>
    <text x="500" y="520" font-size="28" fill="#2e7d32">PROCAP RJ</text>
  </g>
</svg>
