<?xml version="1.0" encoding="UTF-8"?>
<svg xmlns="http://www.w3.org/2000/svg" viewBox="0 0 1000 600" width="1000" height="600">
  <rect width="100%" height="100%" fill="#f6f2ea"/>
  <!-- mountains layers -->
  <path d="M0,420 C120,260 240,260 360,420 C480,580 620,580 740,420 C860,260 980,260 1000,420 L1000,600 L0,600 Z" fill="#2e7d32"/>
  <path d="M0,460 C140,320 260,320 380,460 C520,620 640,620 760,460 C880,300 980,300 1000,460 L1000,600 L0,600 Z" fill="#66bb6a" opacity="0.95"/>
  <circle cx="740" cy="140" r="70" fill="#FFB74D"/>
  <!-- leaves -->
  <path d="M80 120 C60 100 50 70 80 60" stroke="#2e7d32" stroke-width="6" fill="none" stroke-linecap="round"/>
  <path d="M920 120 C940 100 950 70 920 60" stroke="#2e7d32" stroke-width="6" fill="none" stroke-linecap="round"/>
  <!-- Text -->
  <g font-family="Arial, Helvetica, sans-serif" text-anchor="middle">
    <text x="500" y="380" font-size="110" font-weight="700" fill="#1b5e20">VISITE</text>
    <text x="500" y="455" font-size="50" fill="#0d47a1">TERESÓPOLIS <tspan fill="#2e7d32">RJ</tspan></text>
    <text x="500" y="520" font-size="32" fill="#2e7d32">PROCAP RJ</text>
  </g>
</svg>
